# xmcd CD database file
#
# Track frame offsets:
#	183
#	14533
#	27783
#	41993
#	54950
#	69223
#	82353
#	95933
#	109560
#	123578
#	136675
#	149470
#	163840
#	175505
#	189570
#	203920
#	217258
#	229475
#
# Disc length: 3257 seconds
#
# Revision: 2
# Processed by: cddbd v1.5.2PL0 Copyright (c) Steve Scherf et al.
# Submitted via: CDex 1.77
#
DISCID=0e0cb712
DTITLE=Bing Crosby - Pennies From Heaven
DYEAR=1900
DGENRE=Jazz
TTITLE0=Pennies from Heaven
TTITLE1=You Must Have Been A Beautiful Baby
TTITLE2=Temptation
TTITLE3=Mister Gallagher And Mister Shean
TTITLE4=With Every Breath I Take
TTITLE5=Where The Blue Of The Night (Meets The Gold Of The Day)
TTITLE6=Dinah
TTITLE7=Sweet And Lovely
TTITLE8=Sweet Georgia Brown
TTITLE9=Cabin In The Cotton
TTITLE10=You're Getting To Be A Habit With Me
TTITLE11=June In January
TTITLE12=Some Of These Days
TTITLE13=You've Got Me Crying Again
TTITLE14=You're Beautiful Tonight, My Dear
TTITLE15=May I?
TTITLE16=I'm An Old Cowhand (From The Rio Grande)
TTITLE17=Shine
EXTD=
EXTT0=
EXTT1=
EXTT2=
EXTT3=
EXTT4=
EXTT5=
EXTT6=
EXTT7=
EXTT8=
EXTT9=
EXTT10=
EXTT11=
EXTT12=
EXTT13=
EXTT14=
EXTT15=
EXTT16=
EXTT17=
PLAYORDER=
